<?xml version="1.0" standalone="no"?>
<!DOCTYPE svg PUBLIC "-//W3C//DTD SVG 20010904//EN"
 "http://www.w3.org/TR/2001/REC-SVG-20010904/DTD/svg10.dtd">
<svg version="1.0" xmlns="http://www.w3.org/2000/svg"
 width="256.000000pt" height="256.000000pt" viewBox="0 0 256.000000 256.000000"
 preserveAspectRatio="xMidYMid meet">

<g transform="translate(0.000000,256.000000) scale(0.100000,-0.100000)"
fill="#ffff" stroke="none">
<path d="M0 1280 l0 -1280 1280 0 1280 0 0 1280 0 1280 -1280 0 -1280 0 0
-1280z m2438 1215 c24 -21 27 -29 24 -77 -2 -29 -6 -426 -10 -883 -4 -456 -10
-819 -13 -805 -4 14 -6 -36 -6 -110 -1 -81 2 -123 7 -105 5 19 8 -22 9 -107 1
-86 -3 -139 -10 -143 -6 -5 -4 -16 7 -33 57 -87 -27 -218 -99 -155 -17 15 -19
15 -15 2 5 -14 -4 -17 -50 -21 -40 -4 -1755 -2 -1997 2 -6 0 -11 9 -11 20 0
18 7 20 66 21 36 1 72 3 80 4 8 1 53 3 99 4 141 2 81 14 -77 15 -202 1 -190
20 17 26 l160 5 96 130 c149 200 140 185 118 185 -11 0 -39 -30 -71 -75 -29
-42 -80 -109 -113 -150 l-59 -75 -150 0 c-135 0 -151 -2 -156 -18 -3 -9 -13
-33 -22 -52 -39 -80 -132 -31 -132 70 0 27 4 52 10 55 7 4 10 366 10 1054 0
938 -2 1053 -16 1087 -13 31 -14 45 -4 77 6 21 20 47 31 58 19 19 44 19 1134
18 l1115 0 28 -24z"/>
<path d="M177 2462 c-23 -25 -22 -85 1 -105 25 -23 37 -21 61 9 25 32 27 61 5
92 -18 27 -45 28 -67 4z m52 -16 c7 -8 11 -27 9 -43 -2 -22 -8 -28 -28 -28
-20 0 -26 6 -28 28 -3 27 12 57 28 57 4 0 13 -6 19 -14z"/>
<path d="M200 2410 c0 -5 5 -10 10 -10 6 0 10 5 10 10 0 6 -4 10 -10 10 -5 0
-10 -4 -10 -10z"/>
<path d="M2357 2463 c-29 -34 -26 -87 8 -109 25 -16 27 -16 50 6 29 27 32 65
9 98 -18 26 -45 28 -67 5z m53 -17 c16 -20 9 -56 -13 -70 -37 -22 -59 52 -23
76 16 11 22 10 36 -6z"/>
<path d="M2380 2415 c0 -8 5 -15 10 -15 6 0 10 7 10 15 0 8 -4 15 -10 15 -5 0
-10 -7 -10 -15z"/>
<path d="M282 2448 c3 -23 4 -23 144 -19 l140 3 30 -34 c16 -18 65 -82 108
-141 43 -59 85 -107 93 -107 18 0 8 18 -62 110 -23 30 -66 90 -95 133 l-54 77
-154 0 c-153 0 -153 0 -150 -22z"/>
<path d="M620 2462 c0 -8 16 -30 149 -211 67 -91 92 -116 91 -93 0 4 -45 67
-100 140 -55 74 -102 143 -105 153 -6 18 -35 27 -35 11z"/>
<path d="M672 2461 c2 -5 53 -77 113 -160 68 -93 117 -150 128 -151 9 0 17 3
17 8 0 4 -45 67 -100 141 -55 74 -102 142 -105 152 -4 12 -16 19 -32 19 -13 0
-23 -4 -21 -9z"/>
<path d="M740 2464 c0 -6 102 -149 186 -261 21 -29 47 -53 57 -53 9 0 17 2 17
5 0 2 -34 48 -76 102 -42 53 -95 123 -117 155 -23 32 -47 58 -54 58 -7 0 -13
-3 -13 -6z"/>
<path d="M811 2449 c14 -28 151 -211 194 -261 26 -31 39 -38 68 -38 33 0 37 3
38 28 l1 27 7 -25 c4 -14 15 -26 24 -28 14 -3 17 4 17 35 0 21 5 45 10 53 7
11 10 0 10 -37 0 -29 4 -53 9 -53 10 0 26 281 18 305 -4 8 -11 15 -17 15 -6 0
-10 -35 -10 -90 0 -53 -4 -90 -10 -90 -6 0 -10 37 -10 90 0 73 -3 90 -15 90
-21 0 -20 -105 1 -155 12 -30 13 -43 4 -66 -26 -62 -90 -39 -90 32 0 35 20 69
41 69 5 0 9 27 9 60 l0 60 -155 0 -156 0 12 -21z m207 -41 c26 -56 -26 -111
-69 -72 -23 21 -24 52 -3 82 21 30 55 25 72 -10z"/>
<path d="M963 2384 c-8 -21 19 -38 30 -18 9 16 1 34 -14 34 -5 0 -12 -7 -16
-16z"/>
<path d="M1220 2310 c0 -136 2 -160 15 -160 8 0 15 9 15 20 0 11 5 20 10 20 6
0 10 -9 10 -20 0 -25 27 -27 33 -2 4 16 5 16 6 0 1 -25 17 -22 26 5 l8 22 4
-22 c2 -13 11 -23 19 -23 12 0 14 28 14 160 0 142 -2 160 -16 160 -15 0 -16
-13 -11 -116 5 -105 4 -117 -14 -135 -22 -22 -28 -23 -63 -9 -26 10 -26 10
-26 135 0 104 -2 125 -15 125 -13 0 -15 -24 -15 -160z"/>
<path d="M1270 2398 c0 -67 1 -71 16 -56 13 13 15 27 10 72 -10 79 -26 69 -26
-16z"/>
<path d="M1312 2403 c2 -42 8 -68 16 -71 9 -3 12 15 12 67 0 57 -3 71 -15 71
-13 0 -15 -12 -13 -67z"/>
<path d="M1400 2310 c0 -100 4 -160 10 -160 6 0 10 50 10 129 0 71 3 143 6
160 5 24 3 31 -10 31 -14 0 -16 -19 -16 -160z"/>
<path d="M1440 2310 c0 -136 2 -160 15 -160 18 0 22 85 4 96 -7 4 -8 20 -4 43
4 20 9 69 12 109 4 61 2 72 -11 72 -14 0 -16 -21 -16 -160z"/>
<path d="M1490 2410 c0 -47 3 -60 15 -60 12 0 15 13 15 60 0 47 -3 60 -15 60
-12 0 -15 -13 -15 -60z"/>
<path d="M1530 2400 c0 -38 5 -80 11 -94 15 -33 -5 -86 -32 -86 -15 0 -19 -7
-19 -35 0 -40 16 -46 30 -12 l9 22 0 -22 c1 -36 36 -28 68 16 15 21 60 80 99
132 39 52 78 106 88 122 l18 27 -136 0 -136 0 0 -70z m120 9 c18 -41 3 -83
-30 -87 -30 -5 -50 21 -50 63 0 61 58 78 80 24z"/>
<path d="M1602 2378 c2 -13 8 -23 13 -23 6 0 11 10 13 23 2 15 -2 22 -13 22
-11 0 -15 -7 -13 -22z"/>
<path d="M1747 2357 c-42 -62 -95 -131 -117 -153 -21 -23 -36 -44 -33 -48 19
-18 44 3 103 86 164 233 161 228 143 228 -11 -1 -47 -43 -96 -113z"/>
<path d="M1870 2458 c-1 -7 -47 -78 -104 -158 -77 -108 -100 -146 -88 -149 19
-4 33 13 150 173 114 157 109 146 72 146 -17 0 -30 -5 -30 -12z"/>
<path d="M1913 2408 c-23 -35 -73 -106 -112 -158 -41 -55 -66 -97 -59 -99 7
-2 18 6 26 17 8 12 59 83 113 158 55 74 99 137 99 140 0 2 -6 4 -13 4 -7 0
-31 -28 -54 -62z"/>
<path d="M1976 2423 c-17 -26 -65 -94 -108 -152 -43 -58 -78 -109 -78 -114 0
-25 35 12 128 136 l103 137 143 0 c135 0 144 1 149 20 5 19 0 20 -151 20
l-157 -1 -29 -46z"/>
<path d="M1941 2289 c-82 -115 -103 -154 -73 -135 15 9 182 244 182 255 0 25
-20 3 -109 -120z"/>
<path d="M280 2388 c0 -10 30 -12 127 -10 l128 3 43 -36 c23 -20 65 -72 94
-116 28 -43 58 -79 66 -79 12 0 11 5 -4 28 -25 38 -92 129 -133 180 l-34 42
-144 0 c-108 0 -143 -3 -143 -12z"/>
<path d="M2060 2389 c0 -12 -68 -114 -122 -183 -21 -27 -36 -51 -33 -55 8 -7
50 42 117 139 28 41 57 78 62 82 6 4 59 8 119 8 64 0 107 4 107 10 0 6 -48 10
-125 10 -81 0 -125 -4 -125 -11z"/>
<path d="M264 2351 c-16 -16 12 -21 125 -21 l129 0 41 -67 c52 -87 78 -120 87
-110 4 4 -2 17 -13 30 -12 12 -39 54 -61 92 l-40 70 -132 5 c-72 3 -134 3
-136 1z"/>
<path d="M2033 2269 c-32 -45 -64 -90 -72 -100 -11 -16 -11 -19 1 -19 8 0 43
40 79 89 l64 90 118 0 c71 1 117 5 117 11 0 6 -48 10 -124 10 l-124 0 -59 -81z"/>
<path d="M576 2304 c75 -122 114 -172 114 -146 0 13 -56 92 -96 137 -31 34
-34 35 -18 9z"/>
<path d="M184 2301 c-15 -15 27 -21 159 -21 149 0 152 0 167 -24 49 -77 72
-106 85 -106 9 0 -4 26 -38 74 l-52 74 -158 4 c-87 2 -160 1 -163 -1z"/>
<path d="M1087 2295 c-9 -22 3 -46 22 -43 10 2 16 13 16 28 0 28 -29 40 -38
15z"/>
<path d="M1284 2297 c-9 -25 0 -62 15 -62 22 0 38 32 25 52 -14 23 -33 28 -40
10z"/>
<path d="M1482 2283 c2 -17 9 -28 18 -28 9 0 16 11 18 28 3 22 -1 27 -18 27
-17 0 -21 -5 -18 -27z"/>
<path d="M2259 2300 l-146 -5 -52 -68 c-29 -38 -50 -72 -46 -75 4 -4 17 6 29
22 11 16 36 47 55 68 l33 38 139 0 c117 0 139 2 139 15 0 8 -1 14 -2 13 -2 -1
-69 -5 -149 -8z"/>
<path d="M186 2252 c-3 -3 -6 -27 -6 -54 l0 -48 35 0 c33 0 34 1 29 30 -5 22
-2 31 11 36 23 9 36 -14 29 -48 -5 -25 -3 -28 23 -28 15 0 46 -5 68 -12 38
-11 39 -12 15 -19 -14 -4 -67 -7 -118 -8 l-92 -1 2 -597 3 -598 23 -3 22 -3 0
192 c0 106 2 190 5 187 3 -2 5 -54 5 -114 1 -145 11 -265 21 -258 5 3 9 90 9
193 0 180 -1 189 -20 194 -24 6 -27 49 -5 67 33 27 38 -2 39 -230 l1 -221 995
-3 c547 -1 1003 0 1012 2 15 4 17 23 20 173 2 93 0 169 -3 169 -4 0 -14 12
-24 26 -15 24 -15 27 0 50 24 37 45 41 67 15 25 -31 23 -67 -4 -85 -22 -15
-23 -20 -23 -177 0 -121 3 -163 13 -166 9 -4 12 34 14 164 l2 168 6 -168 c3
-92 8 -167 13 -167 4 0 15 0 26 0 18 0 18 11 15 248 l-3 247 -48 3 c-44 3 -51
7 -81 48 -30 41 -36 44 -77 44 -25 0 -45 5 -45 10 0 6 22 10 48 10 46 0 49 -2
85 -51 36 -48 40 -50 80 -47 l42 3 -1 333 c-1 183 -3 335 -6 337 -2 2 -52 7
-112 11 -110 7 -122 18 -33 30 44 6 48 9 43 30 -8 31 2 54 24 54 19 0 30 -19
30 -51 0 -14 7 -19 25 -19 24 0 25 3 25 56 l0 57 -137 -6 -138 -5 -37 -44
c-21 -24 -38 -48 -38 -55 0 -6 20 -15 45 -19 74 -11 60 -21 -38 -26 -139 -8
-1509 -10 -1551 -3 -46 9 -46 22 -1 31 19 3 35 10 35 15 0 5 -16 30 -36 56
l-36 47 -143 2 c-79 1 -146 -1 -149 -4z m252 -34 c17 -17 15 -63 -4 -79 -36
-30 -73 41 -39 75 20 19 27 20 43 4z m1769 -26 c11 -45 -22 -75 -51 -47 -20
21 -21 49 -1 69 20 20 44 10 52 -22z m-1852 -7 c0 -33 -21 -41 -38 -14 -14 22
-1 51 20 47 13 -2 18 -13 18 -33z m1920 15 c6 -20 -9 -50 -25 -50 -12 0 -21
31 -15 51 8 25 32 24 40 -1z m-455 -170 c-6 -11 -13 -20 -16 -20 -2 0 0 9 6
20 6 11 13 20 16 20 2 0 0 -9 -6 -20z m170 -77 c13 -54 40 -159 60 -233 21
-74 50 -182 65 -240 15 -58 42 -157 60 -220 46 -163 78 -290 74 -295 -2 -2
-33 -5 -69 -6 l-64 -3 -34 126 -35 126 -92 7 c-61 4 -100 3 -113 -4 -12 -6
-30 -11 -41 -11 -19 0 -18 3 11 90 l30 90 80 0 c67 0 79 2 74 15 -3 8 -22 77
-42 152 -20 76 -39 142 -42 147 -7 12 -50 -122 -132 -409 -17 -60 -46 -155
-64 -210 l-33 -100 -55 -6 c-30 -3 -60 -9 -67 -13 -16 -11 -15 -5 39 174 28
91 71 235 95 320 24 85 66 234 93 330 28 96 55 194 61 217 11 38 14 42 49 46
20 2 44 4 53 5 11 2 21 -22 39 -95z m-1245 55 c96 -50 192 -159 233 -263 62
-158 52 -413 -20 -530 -72 -115 -157 -192 -250 -225 -26 -9 -46 -19 -43 -22 3
-2 -69 -5 -160 -6 l-165 -1 0 524 c0 288 -3 531 -6 540 -6 15 9 16 177 13 176
-3 186 -4 234 -30z m825 -53 l0 -85 -177 -2 -178 -3 -3 -137 -3 -138 156 0
156 0 -3 -87 -3 -88 -105 0 c-58 0 -126 -2 -152 -3 l-48 -2 0 -140 0 -140 164
0 c91 0 167 -3 170 -8 2 -4 -3 -42 -12 -84 l-16 -78 -223 3 c-215 2 -223 3
-224 22 -3 79 -3 1047 0 1051 2 2 116 4 253 4 l248 0 0 -85z m744 53 c21 -29
20 -72 0 -93 -23 -22 -67 -15 -79 13 -9 21 -16 22 -107 22 -59 0 -98 4 -98 10
0 6 38 10 93 10 92 0 94 0 115 30 27 36 55 38 76 8z m-664 -8 c-6 -11 -13 -20
-16 -20 -2 0 0 9 6 20 6 11 13 20 16 20 2 0 0 -9 -6 -20z m-1365 -10 c4 -12 1
-27 -5 -35 -8 -9 -10 -34 -6 -67 12 -122 13 -113 -14 -113 -19 0 -26 6 -28 24
-2 13 1 28 7 34 14 14 14 104 1 112 -11 7 -14 48 -3 58 14 14 42 6 48 -13z
m1498 -17 c-27 -43 -102 -141 -113 -148 -6 -4 18 34 52 84 35 50 66 90 71 91
4 0 0 -12 -10 -27z m585 -157 c2 -16 -1 -33 -6 -38 -15 -15 -50 0 -54 24 -3
20 -9 20 -120 19 -80 -1 -118 1 -118 9 0 7 39 10 120 9 66 -2 123 1 127 5 17
17 48 0 51 -28z m-58 -76 c24 -24 27 -82 4 -104 -19 -20 -35 -20 -60 -1 -11 8
-46 15 -84 17 l-65 2 63 3 c54 3 62 7 62 23 0 18 -7 20 -60 20 -33 0 -60 4
-60 10 0 6 25 10 56 10 41 0 63 5 81 20 14 11 30 20 34 20 5 0 18 -9 29 -20z
m-830 -11 c47 1 96 -2 110 -8 19 -7 -2 -10 -87 -10 -94 -1 -113 -4 -113 -16 0
-8 -9 -15 -20 -15 -14 0 -20 7 -20 23 0 30 10 40 29 31 9 -4 54 -6 101 -5z
m-1202 -21 c16 -16 15 -43 -2 -57 -11 -9 -18 -8 -30 4 -19 19 -19 21 -6 46 12
22 21 24 38 7z m1967 -129 c-56 -11 -105 -11 -105 1 0 6 30 10 73 9 65 -1 68
-2 32 -10z m114 -21 c5 -14 5 -31 -2 -42 -9 -19 -10 -19 -28 3 -14 17 -16 27
-9 42 14 25 29 24 39 -3z m-961 -290 c-4 -27 -23 -34 -32 -13 -8 21 1 35 20
35 10 0 14 -8 12 -22z m105 5 c-7 -2 -19 -2 -25 0 -7 3 -2 5 12 5 14 0 19 -2
13 -5z m757 -47 c28 -42 30 -50 28 -128 l-1 -83 -6 86 c-5 74 -10 90 -33 118
-26 30 -35 51 -23 51 2 0 18 -20 35 -44z m-339 -219 c-18 -18 -38 8 -21 28 12
15 14 15 23 0 6 -11 5 -21 -2 -28z"/>
<path d="M407 2184 c-8 -8 1 -24 14 -24 5 0 9 7 9 15 0 15 -12 20 -23 9z"/>
<path d="M2170 2175 c0 -8 5 -15 10 -15 6 0 10 7 10 15 0 8 -4 15 -10 15 -5 0
-10 -7 -10 -15z"/>
<path d="M480 1501 l0 -371 85 0 c52 0 99 6 120 14 151 63 228 261 180 464
-19 79 -36 113 -88 169 -61 66 -106 86 -209 91 l-88 4 0 -371z m162 242 c45
-41 1 -138 -48 -105 -27 18 -35 51 -20 87 16 39 39 45 68 18z m123 -72 c0 -14
-7 -27 -15 -29 -13 -4 -13 -3 -2 10 8 10 9 18 3 22 -6 4 -15 -3 -21 -14 -6
-11 -15 -20 -20 -20 -17 0 -11 39 8 49 27 16 47 8 47 -18z m-155 -71 c0 -5
-20 -10 -45 -10 -25 0 -45 5 -45 10 0 6 20 10 45 10 25 0 45 -4 45 -10z m50
-10 c-6 -11 -13 -20 -16 -20 -2 0 0 9 6 20 6 11 13 20 16 20 2 0 0 -9 -6 -20z
m105 -29 c-3 -12 -10 -21 -15 -21 -14 0 -21 32 -9 47 16 19 33 1 24 -26z m74
-57 c2 -2 -70 -3 -160 -2 -111 1 -149 3 -119 9 44 7 271 2 279 -7z m-4 -64
c-4 -6 -69 -10 -163 -10 -105 0 -152 4 -142 10 20 13 313 13 305 0z m-176 -54
c-11 -10 -129 -16 -129 -6 0 6 27 10 67 10 36 0 64 -2 62 -4z m161 -6 c0 -5
-25 -10 -56 -10 -34 0 -53 4 -49 10 3 6 28 10 56 10 27 0 49 -4 49 -10z m-186
-36 c21 -20 20 -78 0 -95 -14 -11 -20 -10 -40 14 -13 16 -24 37 -24 47 0 19
25 50 40 50 5 0 16 -7 24 -16z"/>
<path d="M600 1715 c-16 -19 -9 -49 13 -53 14 -3 17 3 15 28 -3 37 -11 45 -28
25z"/>
<path d="M607 1324 c-4 -4 -7 -18 -7 -31 0 -28 23 -27 28 1 4 20 -11 40 -21
30z"/>
<path d="M2254 1976 c-8 -35 2 -58 23 -54 25 5 25 71 1 76 -12 2 -19 -5 -24
-22z"/>
<path d="M250 1970 c0 -5 5 -10 10 -10 6 0 10 5 10 10 0 6 -4 10 -10 10 -5 0
-10 -4 -10 -10z"/>
<path d="M250 1800 c0 -5 5 -10 10 -10 6 0 10 5 10 10 0 6 -4 10 -10 10 -5 0
-10 -4 -10 -10z"/>
<path d="M2335 1817 c-4 -10 -5 -21 -1 -24 10 -10 18 4 13 24 -4 17 -4 17 -12
0z"/>
<path d="M2266 1714 c-23 -22 -17 -59 9 -59 15 0 21 8 23 29 5 38 -11 52 -32
30z"/>
<path d="M255 1690 c-4 -6 -3 -16 3 -22 6 -6 12 -6 17 2 4 6 3 16 -3 22 -6 6
-12 6 -17 -2z"/>
<path d="M2330 1540 c0 -11 5 -20 10 -20 6 0 10 9 10 20 0 11 -4 20 -10 20 -5
0 -10 -9 -10 -20z"/>
<path d="M2330 2173 c0 -13 5 -23 10 -23 13 0 13 11 0 30 -8 12 -10 11 -10 -7z"/>
<path d="M250 1325 c0 -8 5 -15 10 -15 6 0 10 7 10 15 0 8 -4 15 -10 15 -5 0
-10 -7 -10 -15z"/>
<path d="M2304 1305 c-8 -32 1 -43 24 -29 22 14 22 48 0 52 -12 2 -19 -5 -24
-23z"/>
<path d="M2432 1035 c0 -16 2 -22 5 -12 2 9 2 23 0 30 -3 6 -5 -1 -5 -18z"/>
<path d="M187 853 c-4 -3 -7 -80 -7 -170 l0 -163 1114 0 1114 0 5 33 c3 17 4
93 4 167 l-2 135 -1111 3 c-611 1 -1114 -1 -1117 -5z m257 -49 c21 -20 21 -64
1 -64 -8 0 -15 9 -15 20 0 11 -4 20 -10 20 -6 0 -10 -33 -10 -80 0 -44 4 -80
9 -80 15 0 24 41 12 53 -18 18 -13 37 9 37 18 0 20 -7 20 -55 0 -46 -3 -56
-22 -66 -18 -10 -24 -8 -40 11 -27 34 -26 172 2 200 24 24 24 24 44 4z m596
-15 c16 -28 12 -49 -9 -49 -10 0 -18 6 -17 13 0 6 -3 13 -9 15 -15 3 -13 -140
3 -146 15 -5 17 54 1 64 -16 10 6 28 25 21 12 -5 16 -21 16 -61 0 -50 -2 -54
-27 -61 -42 -10 -53 14 -53 116 0 65 4 91 15 103 18 18 41 11 55 -15z m600 0
c14 -26 12 -49 -4 -49 -7 0 -17 10 -20 23 -6 20 -7 20 -17 5 -14 -25 -7 -140
9 -146 15 -5 17 54 1 64 -16 10 6 28 25 21 12 -5 16 -21 16 -62 0 -30 -4 -55
-9 -55 -5 0 -16 -3 -24 -6 -8 -3 -22 2 -31 11 -22 23 -23 186 -1 209 18 18 41
11 55 -15z m-1322 9 c16 -16 16 -180 0 -196 -7 -7 -25 -12 -40 -12 l-28 0 0
110 0 110 28 0 c15 0 33 -5 40 -12z m52 -98 c0 -91 -3 -110 -15 -110 -12 0
-15 19 -15 110 0 91 3 110 15 110 12 0 15 -19 15 -110z m220 96 c0 -8 -7 -19
-15 -23 -10 -6 -15 -32 -17 -96 -4 -120 -22 -117 -26 6 -2 77 -6 97 -17 97
-12 0 -15 -18 -15 -95 0 -78 -3 -95 -15 -95 -12 0 -15 19 -15 109 l0 108 60 2
c46 1 60 -2 60 -13z m50 9 c0 -3 7 -50 15 -106 8 -55 13 -105 9 -110 -8 -14
-24 0 -24 22 0 10 -7 19 -15 19 -8 0 -15 -9 -15 -20 0 -12 -7 -20 -16 -20 -14
0 -15 9 -10 58 13 106 27 162 42 162 8 0 14 -2 14 -5z m60 -90 l0 -95 26 0
c19 0 25 -4 22 -17 -2 -13 -13 -18 -33 -18 l-30 0 -3 113 c-2 72 1 112 8 112
6 0 10 -36 10 -95z m217 50 l11 -40 1 43 c1 30 5 42 16 42 12 0 15 -19 15
-109 0 -63 -4 -112 -10 -116 -11 -7 -29 32 -37 83 -9 51 -23 37 -21 -20 2 -29
-1 -54 -7 -56 -6 -1 -11 37 -13 97 l-3 98 -24 -5 c-20 -3 -25 -10 -25 -33 0
-19 5 -29 15 -29 8 0 15 -9 15 -20 0 -11 -7 -20 -15 -20 -10 0 -15 -10 -15
-30 0 -23 4 -30 20 -30 14 0 20 -7 20 -21 0 -15 -4 -19 -16 -15 -9 3 -24 6
-35 6 -17 0 -19 8 -19 103 0 57 3 107 7 111 4 3 29 5 57 3 49 -3 51 -4 63 -42z
m163 -71 c0 -74 -4 -113 -10 -109 -6 4 -10 53 -10 116 0 66 4 109 10 109 6 0
10 -45 10 -116z m62 69 l16 -48 1 48 c1 26 6 47 11 47 6 0 10 -45 10 -115 0
-69 -4 -115 -10 -115 -5 0 -12 12 -16 28 -3 15 -12 47 -19 72 l-13 45 -1 -72
c-1 -41 -5 -73 -11 -73 -6 0 -10 45 -10 115 0 89 3 115 13 115 8 0 21 -21 29
-47z m118 32 c0 -8 -7 -15 -15 -15 -10 0 -15 -10 -15 -30 0 -20 5 -30 15 -30
8 0 15 -7 15 -15 0 -8 -7 -15 -15 -15 -10 0 -15 -10 -15 -34 0 -28 4 -34 24
-38 l24 -5 -1 96 -2 96 33 3 c24 2 32 -1 32 -12 0 -9 -9 -16 -20 -16 -16 0
-20 -7 -20 -30 0 -20 5 -30 15 -30 8 0 15 -7 15 -15 0 -8 -7 -15 -15 -15 -10
0 -15 -11 -15 -35 0 -28 4 -35 20 -35 11 0 20 -7 20 -15 0 -11 -13 -15 -54
-15 -30 0 -61 -3 -70 -6 -14 -5 -16 8 -16 110 l0 116 30 0 c20 0 30 -5 30 -15z
m161 -12 c7 -19 7 -39 1 -60 -6 -18 -6 -49 -1 -75 11 -58 11 -58 -5 -58 -9 0
-16 17 -20 45 -4 25 -11 45 -17 45 -5 0 -9 -20 -9 -45 0 -25 -4 -45 -10 -45
-6 0 -10 43 -10 110 l0 110 30 0 c24 0 33 -6 41 -27z m39 -83 c0 -67 -4 -110
-10 -110 -6 0 -10 43 -10 110 0 67 4 110 10 110 6 0 10 -43 10 -110z m57 73
l10 -38 2 38 c1 26 6 37 16 37 12 0 15 -19 15 -110 0 -85 -3 -110 -13 -110 -8
0 -19 23 -28 58 l-14 57 -3 -55 c-2 -30 -7 -59 -13 -65 -5 -5 -9 35 -9 108 0
90 3 117 13 117 8 0 18 -17 24 -37z m227 15 c3 -13 10 -57 16 -98 6 -41 13
-76 15 -79 3 -2 5 41 5 97 0 101 0 102 24 102 37 0 45 -19 45 -110 -1 -47 1
-89 3 -95 1 -5 -2 -12 -7 -15 -5 -3 -14 16 -19 43 -12 60 -26 61 -26 2 0 -41
-2 -45 -24 -45 -15 0 -26 7 -29 20 -3 11 -10 20 -17 20 -7 0 -14 -9 -17 -20
-8 -29 -35 -26 -29 3 3 12 10 61 17 110 8 62 15 87 25 87 7 0 16 -10 18 -22z
m186 3 c15 -28 12 -51 -5 -51 -8 0 -15 9 -15 20 0 11 -4 20 -10 20 -6 0 -10
-34 -10 -81 0 -60 3 -80 13 -76 6 2 11 14 10 26 -2 13 3 21 12 21 21 0 20 -54
-1 -75 -36 -36 -64 11 -64 108 0 76 11 107 40 107 11 0 24 -9 30 -19z m44 3
c3 -9 6 -29 6 -45 0 -16 5 -29 10 -29 6 0 10 20 10 45 0 33 4 45 15 45 12 0
15 -19 15 -110 0 -91 -3 -110 -15 -110 -11 0 -15 12 -15 51 0 67 -23 62 -24
-6 -1 -29 -6 -50 -13 -52 -10 -4 -13 23 -13 111 0 106 8 141 24 100z m176 1
c0 -8 -4 -15 -10 -15 -5 0 -11 -43 -12 -95 -4 -126 -22 -129 -26 -3 -2 73 -6
97 -17 102 -13 4 -15 -11 -15 -94 0 -82 -3 -100 -15 -100 -12 0 -15 19 -15
109 l0 108 55 2 c43 1 55 -2 55 -14z m70 1 c0 -7 -9 -16 -20 -19 -29 -7 -27
-53 3 -61 l22 -7 -22 -16 c-29 -20 -31 -63 -3 -70 32 -8 24 -33 -10 -33 l-30
0 0 110 0 110 30 0 c19 0 30 -5 30 -14z m160 -2 c0 -7 -4 -14 -10 -14 -5 0
-11 -41 -12 -92 -2 -62 -7 -93 -15 -96 -10 -3 -13 20 -13 92 0 57 -4 96 -10
96 -5 0 -10 -9 -10 -20 0 -27 -29 -25 -39 3 -8 18 -10 19 -16 6 -11 -27 -1
-142 13 -147 7 -2 12 6 12 22 0 28 17 35 26 12 7 -17 -16 -68 -32 -73 -7 -2
-19 3 -28 12 -12 13 -16 36 -16 100 0 46 3 90 6 98 8 21 144 22 144 1z"/>
<path d="M280 703 c0 -77 10 -104 24 -67 11 30 6 110 -9 130 -13 17 -14 11
-15 -63z"/>
<path d="M622 695 c0 -16 2 -22 5 -12 2 9 2 23 0 30 -3 6 -5 -1 -5 -18z"/>
<path d="M1372 749 c2 -19 8 -33 13 -31 15 3 12 55 -3 60 -10 3 -13 -5 -10
-29z"/>
<path d="M1800 745 c0 -25 4 -35 13 -32 6 2 12 16 12 32 0 16 -6 30 -12 33 -9
2 -13 -8 -13 -33z"/>
<path d="M1721 703 c-1 -18 4 -33 9 -33 12 0 12 17 0 45 -7 17 -9 15 -9 -12z"/>
<path d="M162 620 c0 -14 2 -19 5 -12 2 6 2 18 0 25 -3 6 -5 1 -5 -13z"/>
<path d="M180 400 l0 -71 157 3 156 3 38 55 c21 30 39 61 39 68 0 9 -46 12
-195 12 l-195 0 0 -70z m262 25 c10 -22 9 -29 -10 -47 -17 -18 -23 -19 -36 -8
-28 23 -17 80 15 80 11 0 24 -11 31 -25z m-162 0 c14 -17 4 -55 -14 -55 -25 0
-39 27 -26 49 13 25 23 26 40 6z m78 -29 c-2 -13 -10 -21 -23 -21 -23 0 -32
30 -14 51 16 19 41 -1 37 -30z"/>
<path d="M400 405 c0 -9 5 -15 11 -13 6 2 11 8 11 13 0 5 -5 11 -11 13 -6 2
-11 -4 -11 -13z"/>
<path d="M256 411 c-4 -7 -5 -15 -2 -18 9 -9 19 4 14 18 -4 11 -6 11 -12 0z"/>
<path d="M593 443 c-10 -16 -35 -52 -55 -80 l-39 -53 -159 0 c-139 0 -160 -2
-160 -16 0 -14 19 -15 167 -9 92 3 172 10 178 15 6 5 39 45 74 90 58 76 60 80
37 80 -17 0 -31 -9 -43 -27z"/>
<path d="M647 427 c-15 -23 -47 -69 -71 -102 l-43 -60 -142 -3 c-107 -2 -141
-6 -138 -15 2 -7 9 -12 15 -11 7 1 74 2 151 3 l139 1 78 95 c43 52 82 95 87
95 5 0 3 -8 -4 -19 -8 -10 -33 -45 -56 -78 -23 -33 -57 -73 -76 -90 -35 -30
-37 -31 -116 -26 -90 6 -191 -4 -191 -18 0 -5 64 -9 150 -9 l149 0 78 101 c43
56 90 116 106 134 15 18 27 35 27 39 0 3 -26 6 -57 6 -57 -1 -59 -2 -86 -43z
m-16 -70 l-34 -32 29 37 c15 20 30 35 33 32 3 -2 -10 -19 -28 -37z"/>
<path d="M788 348 c-48 -68 -108 -149 -133 -181 -39 -48 -43 -57 -27 -57 11 0
22 6 25 13 3 7 59 86 126 175 67 89 121 164 121 167 0 3 -6 5 -13 5 -7 0 -52
-55 -99 -122z"/>
<path d="M802 294 c-73 -97 -132 -177 -130 -179 2 -2 12 -5 22 -7 14 -2 37 23
95 108 42 61 97 139 124 172 26 33 47 65 47 71 0 33 -38 -7 -158 -165z"/>
<path d="M936 388 c-31 -46 -88 -126 -126 -178 -38 -52 -66 -98 -64 -102 9
-14 22 0 96 105 39 56 96 132 125 169 54 68 63 88 40 88 -7 0 -39 -37 -71 -82z"/>
<path d="M1086 463 c-12 -12 -6 -91 7 -102 20 -16 27 -3 27 50 0 31 -5 49 -14
52 -8 3 -17 3 -20 0z"/>
<path d="M1136 463 c-10 -11 -7 -115 5 -148 15 -42 5 -81 -27 -102 -25 -16
-27 -16 -45 8 -29 37 -34 69 -16 102 21 35 24 137 5 137 -7 0 -27 -22 -45 -48
-17 -26 -73 -102 -122 -170 -50 -67 -91 -125 -91 -127 0 -3 70 -5 155 -5 l155
0 0 29 c0 17 5 33 10 36 6 4 10 -10 10 -34 0 -30 4 -41 15 -41 13 0 15 27 15
179 0 163 -5 203 -24 184z m-132 -209 c29 -29 12 -114 -23 -114 -4 0 -17 9
-29 20 -29 27 -29 74 0 94 28 20 33 20 52 0z"/>
<path d="M963 214 c-8 -22 15 -44 26 -25 10 16 4 41 -10 41 -5 0 -12 -7 -16
-16z"/>
<path d="M1225 459 c-10 -26 -1 -349 10 -349 17 -1 23 111 8 158 -8 23 -10 48
-6 55 4 6 6 20 5 30 -2 9 1 17 6 17 12 0 4 80 -9 94 -5 6 -11 3 -14 -5z"/>
<path d="M1274 462 c-18 -12 -11 -66 9 -70 13 -3 17 4 17 32 0 36 -9 49 -26
38z"/>
<path d="M1314 456 c-8 -21 4 -86 16 -86 13 0 13 87 0 95 -6 3 -13 -1 -16 -9z"/>
<path d="M1487 436 c-5 -32 9 -60 24 -50 5 3 8 0 7 -8 -2 -8 4 -12 15 -10 13
2 18 -2 16 -15 -1 -10 1 -26 6 -35 4 -10 4 -26 0 -35 -5 -10 -7 -29 -6 -42 2
-14 -1 -21 -8 -17 -6 4 -11 1 -11 -6 0 -7 -10 -18 -22 -23 -18 -8 -23 -18 -23
-50 0 -29 4 -40 15 -40 10 0 17 14 21 40 l6 40 2 -41 1 -42 133 5 c72 3 133 6
134 7 2 2 -40 59 -91 129 -52 69 -109 148 -127 175 -25 39 -37 49 -59 49 -24
0 -29 -5 -33 -31z m155 -183 c33 -30 13 -113 -28 -113 -40 0 -59 77 -27 112
20 22 31 23 55 1z"/>
<path d="M1604 216 c-8 -21 3 -49 16 -41 5 3 10 15 10 25 0 25 -18 36 -26 16z"/>
<path d="M1570 460 c0 -5 13 -24 29 -42 16 -18 59 -76 96 -128 37 -52 82 -114
98 -137 18 -25 39 -43 50 -43 22 0 23 -3 -109 176 -46 61 -93 127 -104 147
-20 34 -60 52 -60 27z"/>
<path d="M1630 464 c0 -4 49 -72 108 -153 60 -80 118 -160 130 -178 16 -22 28
-30 42 -26 18 5 15 11 -28 72 -25 36 -73 100 -106 141 -32 41 -69 92 -83 112
-14 23 -31 38 -43 38 -11 0 -20 -3 -20 -6z"/>
<path d="M1690 463 c0 -4 9 -16 19 -27 21 -23 144 -185 205 -271 22 -30 45
-55 53 -55 7 0 13 3 13 6 0 3 -51 74 -113 157 -63 84 -119 162 -126 175 -10
20 -51 32 -51 15z"/>
<path d="M1750 461 c0 -6 4 -12 9 -15 15 -10 237 -310 244 -330 2 -7 57 -12
161 -14 128 -3 157 -1 154 10 -4 10 -38 13 -149 13 -104 0 -144 3 -144 12 0 6
-40 64 -90 129 -49 65 -103 137 -119 161 -17 25 -36 43 -47 43 -11 0 -19 -4
-19 -9z"/>
<path d="M1810 465 c0 -2 33 -46 73 -97 39 -52 90 -121 112 -155 l40 -62 138
-1 c85 0 137 4 137 10 0 6 -52 10 -135 10 -128 0 -135 1 -135 20 0 11 -23 48
-50 82 -28 34 -71 93 -96 130 -30 45 -52 68 -65 68 -10 0 -19 -2 -19 -5z"/>
<path d="M1881 451 c56 -74 85 -113 120 -158 l40 -53 149 0 c88 0 151 4 155
10 4 6 -45 10 -139 10 l-144 0 -37 43 c-20 23 -55 70 -78 105 -27 40 -48 62
-60 62 -17 0 -18 -2 -6 -19z"/>
<path d="M1930 465 c0 -10 123 -167 133 -170 7 -2 87 -6 180 -9 142 -4 167 -3
167 9 0 13 -26 15 -159 15 -180 0 -188 3 -237 86 -40 68 -21 64 25 -5 l42 -61
164 0 165 0 0 48 c0 26 3 57 6 70 l6 22 -246 0 c-135 0 -246 -2 -246 -5z m271
-29 c16 -34 4 -76 -21 -76 -32 0 -47 43 -26 75 21 31 33 32 47 1z m74 -15 c7
-24 -3 -51 -20 -51 -20 0 -28 18 -21 46 7 28 32 32 41 5z m83 -14 c4 -34 -25
-49 -44 -22 -10 13 -10 23 -3 37 15 27 43 18 47 -15z"/>
<path d="M2170 405 c0 -8 5 -15 10 -15 6 0 10 7 10 15 0 8 -4 15 -10 15 -5 0
-10 -7 -10 -15z"/>
<path d="M2325 409 c-10 -15 3 -25 16 -12 7 7 7 13 1 17 -6 3 -14 1 -17 -5z"/>
<path d="M1177 284 c1 -97 5 -179 8 -182 17 -17 21 31 17 186 -3 119 -8 172
-16 172 -8 0 -10 -50 -9 -176z"/>
<path d="M1350 396 c0 -36 5 -68 10 -71 14 -9 12 -42 -3 -52 -17 -11 -8 -165
11 -171 9 -3 12 37 12 177 0 154 -2 181 -15 181 -12 0 -15 -14 -15 -64z"/>
<path d="M1397 453 c-2 -5 -5 -83 -6 -174 -2 -117 1 -169 9 -174 17 -11 22 -1
22 49 1 61 16 59 20 -1 4 -64 22 -61 26 4 3 48 1 53 -18 53 -15 0 -20 5 -18
18 2 9 -3 22 -12 29 -12 9 -12 14 -3 24 9 9 9 16 2 25 -7 9 -6 16 3 24 18 17
12 130 -7 130 -8 0 -16 -3 -18 -7z"/>
<path d="M1440 421 c0 -25 5 -41 15 -45 12 -4 15 4 15 39 0 33 -4 45 -15 45
-11 0 -15 -11 -15 -39z"/>
<path d="M1280 329 c-17 -31 -9 -63 17 -67 33 -5 49 32 28 64 -19 29 -31 30
-45 3z"/>
<path d="M1462 320 c-16 -26 -15 -45 4 -64 20 -20 29 -20 49 0 11 12 14 25 10
43 -11 43 -42 54 -63 21z"/>
<path d="M1080 300 c-11 -21 2 -60 20 -60 18 0 31 39 20 60 -6 11 -15 20 -20
20 -5 0 -14 -9 -20 -20z"/>
<path d="M192 233 c-26 -10 -42 -59 -31 -92 22 -63 99 -44 99 23 0 53 -31 84
-68 69z m44 -48 c9 -36 -2 -57 -28 -53 -39 5 -38 78 1 78 14 0 23 -9 27 -25z"/>
<path d="M200 165 c0 -8 5 -15 10 -15 6 0 10 7 10 15 0 8 -4 15 -10 15 -5 0
-10 -7 -10 -15z"/>
<path d="M2357 222 c-23 -25 -22 -85 1 -105 24 -22 38 -21 62 3 24 24 26 67 4
98 -18 27 -45 28 -67 4z m58 -52 c0 -28 -4 -36 -22 -38 -28 -4 -44 25 -32 56
6 17 15 22 31 20 19 -2 23 -9 23 -38z"/>
<path d="M2380 164 c0 -8 5 -12 10 -9 6 3 10 10 10 16 0 5 -4 9 -10 9 -5 0
-10 -7 -10 -16z"/>
<path d="M1273 218 c-13 -18 -11 -110 4 -115 7 -3 13 15 15 49 5 61 -2 87 -19
66z"/>
<path d="M1317 224 c-4 -4 -7 -34 -7 -66 0 -78 24 -76 28 2 3 50 -6 78 -21 64z"/>
<path d="M2092 212 c-23 -2 -40 -7 -37 -13 4 -5 62 -9 131 -9 105 0 124 2 124
15 0 13 -14 15 -87 13 -49 -1 -107 -4 -131 -6z"/>
</g>
</svg>
